<svg width="19" height="17" xmlns="http://www.w3.org/2000/svg"><path d="M14.815.041c1.823 0 3.315 1.492 3.315 3.336a3.31 3.31 0 01-2.702 3.246l-.178.028v3.75c0 3.15-2.735 5.698-6.113 5.698-3.3 0-5.987-2.434-6.108-5.484l-.004-.214v-3.75A3.375 3.375 0 01.953 5.574a3.283 3.283 0 01-.829-2.59A3.324 3.324 0 013.046.062a3.36 3.36 0 012.59.829c.56.518.932 1.202 1.056 1.948a10.1 10.1 0 014.849 0A3.303 3.303 0 0114.815.04zm-2.942 11.007H6.255a2.809 2.809 0 005.618 0zM6.52 5.725a1.864 1.864 0 00-1.868 1.867c0 1.035.834 1.868 1.868 1.868a1.864 1.864 0 001.87-1.868 1.864 1.864 0 00-1.868-1.867zm5.162 0a1.864 1.864 0 00-1.868 1.867c0 1.035.834 1.868 1.868 1.868a1.864 1.864 0 001.868-1.868 1.864 1.864 0 00-1.868-1.867z" fill="#FFF"/></svg>