<svg width="21" height="16" xmlns="http://www.w3.org/2000/svg"><g fill="#FFF"><path d="M15.018.5c1.791 0 3.27 1.396 3.373 3.156l.006.197V7.37H16.96V3.853c0-1.001-.789-1.83-1.783-1.91l-.16-.006H3.38a1.94 1.94 0 00-1.936 1.782l-.006.16v6.983a1.94 1.94 0 001.782 1.936l.16.006h3.373v1.437H3.38a3.377 3.377 0 01-3.373-3.18l-.007-.2V3.88A3.376 3.376 0 013.18.506L3.38.5h11.639z"/><path d="M17.377 3.223c1.458 0 2.66 1.176 2.66 2.634v7.01a2.658 2.658 0 01-2.66 2.66H5.737a2.658 2.658 0 01-2.66-2.66V5.882a2.658 2.658 0 012.66-2.66h11.64zM9.266 6.06v6.627l5.462-3.313L9.266 6.06z"/></g></svg>